<svg xmlns="http://www.w3.org/2000/svg" width="380.865" height="60.437" viewBox="0 0 380.865 60.437"><path opacity=".05" fill="#12100B" d="M30.56 47.402c-11.092-9.275-15.95-21.734-10.853-27.827 3.34-3.992 10.126-4.242 17.53-1.343-.177 1.236-.558 2.592-1.152 4.028-3.533-1.05-6.487-.83-7.962.932-2.834 3.39.862 11.154 8.258 17.345 7.403 6.182 15.698 8.452 18.53 5.06 2.695-3.22-.514-10.382-7.18-16.394.606-1.202 1.16-2.395 1.62-3.572 3.003 2.56 5.534 5.353 7.52 8.178L50.39 9.623C48.875 3.97 43.07.616 37.415 2.13L7.852 10.05C2.202 11.563-1.15 17.372.364 23.024L2.24 30.03c2.318-4.24 5.555-8.536 9.604-12.507C24.504 5.1 40.234.61 46.98 7.483c6.375 6.5 2.44 20.82-8.69 32.857-.35-.274-.706-.54-1.052-.827-2.73-2.287-4.834-4.688-6.29-6.93 7.004-7.844 9.768-16.574 6.118-20.297-3.988-4.062-14.103-.6-22.597 7.732C5.98 28.355 2.326 38.4 6.313 42.462 9.25 45.452 15.5 44.36 21.98 40.26c2 2.73 4.498 5.422 7.44 7.92-6.873 4.907-13.996 7.565-19.74 7.497 2.442 3.7 7.06 5.607 11.576 4.397l20.936-5.61c-3.848-1.525-7.86-3.904-11.632-7.062z"/><path fill="#E72B65" d="M30.56 45.636c-11.092-9.274-15.95-21.734-10.853-27.83 3.34-3.99 10.126-4.237 17.53-1.34-.177 1.236-.558 2.593-1.152 4.024-3.533-1.05-6.487-.827-7.962.934-2.834 3.392.862 11.158 8.258 17.347 7.403 6.187 15.698 8.454 18.53 5.06 2.695-3.22-.514-10.382-7.18-16.39.606-1.204 1.16-2.4 1.62-3.574 3.003 2.558 5.534 5.35 7.52 8.176L50.39 7.856C48.875 2.206 43.07-1.15 37.415.363L7.852 8.286C2.202 9.796-1.15 15.61.364 21.26l1.876 7.004c2.318-4.236 5.555-8.535 9.604-12.508C24.504 3.336 40.234-1.16 46.98 5.716c6.375 6.5 2.44 20.82-8.69 32.856-.35-.27-.706-.535-1.052-.827-2.73-2.285-4.834-4.688-6.29-6.93 7.004-7.84 9.768-16.574 6.118-20.294-3.988-4.06-14.103-.6-22.597 7.73-8.49 8.34-12.143 18.386-8.156 22.444 2.934 2.995 9.186 1.9 15.666-2.198 2 2.73 4.498 5.422 7.44 7.92-6.873 4.907-13.996 7.563-19.74 7.496 2.442 3.703 7.06 5.61 11.576 4.402l20.936-5.61c-3.848-1.528-7.86-3.91-11.632-7.066z"/><path fill="#928286" d="M86.916 20.372v-3.834c-.954-.505-1.972-.898-3.057-1.182-1.086-.283-2.19-.425-3.323-.425-1.933 0-3.753.38-5.46 1.14-1.71.76-3.203 1.784-4.478 3.077-1.28 1.293-2.28 2.8-3.01 4.523-.73 1.723-1.092 3.566-1.092 5.527 0 1.933.36 3.753 1.092 5.462.727 1.706 1.73 3.2 3.008 4.477 1.275 1.277 2.755 2.29 4.436 3.032 1.676.74 3.483 1.113 5.416 1.113 1.337 0 2.6-.172 3.788-.514s2.32-.826 3.387-1.448l1.027 1.515c-1.188.684-2.46 1.226-3.813 1.626-1.35.402-2.787.603-4.3.603-2.2 0-4.263-.415-6.196-1.25-1.933-.83-3.618-1.967-5.06-3.408-1.44-1.44-2.58-3.13-3.412-5.062-.832-1.93-1.245-3.996-1.245-6.197 0-2.198.414-4.27 1.245-6.217.832-1.948 1.972-3.642 3.413-5.082 1.44-1.44 3.126-2.585 5.06-3.432 1.932-.848 3.996-1.272 6.194-1.272 1.514 0 2.95.194 4.3.58 1.354.386 2.64.935 3.857 1.648v4.994h-1.782zm2.228 15.958c0-1.187.227-2.31.688-3.364.46-1.056 1.084-1.976 1.87-2.764.79-.788 1.72-1.413 2.788-1.872 1.07-.462 2.216-.692 3.435-.692.86 0 1.68.126 2.45.38.775.25 1.472.578 2.095.98.627.4 1.153.862 1.585 1.382.43.52.748 1.032.957 1.537 0-.653.022-1.306.065-1.96.048-.654.083-1.31.113-1.963h1.516V42.93h3.3v1.782h-4.994V42.93c0-.357.01-.706.022-1.048.017-.342.02-.677.02-1.003-.208.503-.525 1.01-.957 1.513-.43.505-.95.95-1.56 1.337-.608.388-1.31.7-2.097.94-.784.236-1.624.354-2.517.354-1.22 0-2.364-.23-3.435-.69-1.067-.46-2-1.077-2.787-1.85-.785-.773-1.41-1.688-1.87-2.743-.46-1.053-.685-2.19-.685-3.41zm1.872 0c0 .952.18 1.843.535 2.677.36.83.838 1.56 1.447 2.183.61.625 1.34 1.115 2.186 1.472.85.357 1.764.536 2.743.536s1.885-.18 2.72-.536c.833-.356 1.56-.847 2.182-1.472.627-.624 1.115-1.352 1.472-2.183.356-.834.535-1.725.535-2.676s-.18-1.85-.536-2.694c-.358-.847-.847-1.583-1.474-2.207-.622-.626-1.35-1.116-2.18-1.473-.837-.357-1.742-.536-2.722-.536s-1.894.18-2.743.537c-.844.356-1.574.847-2.185 1.472-.61.623-1.088 1.36-1.445 2.206-.355.846-.534 1.744-.534 2.696zm21.884 3.79v2.273c.536.388 1.124.625 1.765.714.64.09 1.27.133 1.894.133.264 0 .595-.052.977-.156.388-.103.757-.28 1.114-.533.358-.25.67-.57.938-.96.27-.384.403-.86.403-1.424 0-.773-.195-1.367-.582-1.783-.384-.416-.884-.75-1.493-1.003-.61-.254-1.268-.476-1.98-.67-.715-.193-1.376-.452-1.985-.78-.61-.327-1.124-.76-1.537-1.292-.418-.535-.627-1.293-.627-2.274 0-.772.147-1.45.448-2.028.296-.58.675-1.063 1.137-1.448.46-.387.98-.677 1.56-.87.578-.19 1.136-.29 1.67-.29.12 0 .367.016.737.046.373.028.796.096 1.27.2.475.104.945.26 1.406.468.457.207.854.49 1.18.847v3.296H119.5v-2.36c-.21-.18-.46-.313-.757-.4-.3-.09-.588-.158-.87-.2-.284-.047-.536-.068-.76-.068h-.465c-.356 0-.714.05-1.07.153-.357.105-.684.27-.984.493-.296.222-.526.505-.688.847-.165.342-.248.766-.248 1.27 0 .654.21 1.168.627 1.538.413.372.927.684 1.536.937.61.252 1.265.49 1.966.714.696.222 1.35.51 1.96.87s1.113.816 1.514 1.38c.404.566.604 1.324.604 2.275 0 .505-.1 1.047-.292 1.626-.19.58-.496 1.124-.914 1.63s-.975.93-1.672 1.27c-.696.34-1.536.512-2.516.512-.3 0-.68-.02-1.14-.067-.458-.043-.94-.126-1.446-.245-.51-.117-.997-.28-1.472-.49-.48-.206-.88-.49-1.206-.846v-3.298h1.695zm9.23-3.79c0-1.187.23-2.31.692-3.364.46-1.056 1.084-1.976 1.872-2.764s1.715-1.413 2.786-1.872c1.07-.462 2.21-.692 3.43-.692.862 0 1.68.126 2.456.38.77.25 1.472.578 2.094.98.623.4 1.15.862 1.58 1.382.432.52.754 1.032.963 1.537 0-.653.02-1.306.064-1.96.044-.654.083-1.31.113-1.963h1.516V42.93h3.295v1.782h-4.986V42.93c0-.357.004-.706.02-1.048.014-.342.022-.677.022-1.003-.21.503-.526 1.01-.958 1.513-.43.505-.953.95-1.563 1.337-.61.388-1.306.7-2.094.94-.787.236-1.627.354-2.52.354-1.22 0-2.36-.23-3.43-.69-1.07-.46-2-1.077-2.787-1.85-.788-.773-1.41-1.688-1.872-2.743-.46-1.053-.69-2.19-.69-3.41zm1.872 0c0 .952.18 1.843.535 2.677.357.83.84 1.56 1.45 2.183.61.625 1.336 1.115 2.186 1.472.844.357 1.76.536 2.738.536.985 0 1.89-.18 2.723-.536.83-.356 1.56-.847 2.186-1.472.62-.624 1.113-1.352 1.47-2.183.357-.834.536-1.725.536-2.676s-.18-1.85-.536-2.694c-.357-.847-.85-1.583-1.472-2.207-.627-.626-1.354-1.116-2.186-1.473-.832-.357-1.737-.536-2.72-.536-.98 0-1.896.18-2.74.537-.85.356-1.575.847-2.185 1.472-.61.623-1.093 1.36-1.45 2.206-.356.846-.535 1.744-.535 2.696zm44.623 6.598h3.48V33.12c-.063-.95-.41-1.783-1.05-2.497-.64-.712-1.58-1.1-2.83-1.158-.893 0-1.755.148-2.586.446-.834.298-1.56.714-2.188 1.25-.623.535-1.12 1.166-1.493 1.894-.37.73-.57 1.523-.603 2.386v7.488h3.3v1.783h-8.65v-1.78h3.48v-9.81c-.062-.95-.41-1.783-1.05-2.497-.636-.712-1.58-1.1-2.83-1.158-.892 0-1.754.157-2.586.468-.83.312-1.565.736-2.206 1.27-.64.534-1.145 1.175-1.515 1.917-.37.744-.56 1.56-.56 2.453v7.354h3.3v1.783h-8.6v-1.783h3.473v-13.15h-3.21v-1.783h4.73l.043 1.562c.026.505.057.966.088 1.382.03.416.043.877.043 1.382.627-1.428 1.585-2.558 2.878-3.39 1.293-.83 2.786-1.262 4.48-1.292 1.514 0 2.742.41 3.678 1.226.936.818 1.493 1.896 1.672 3.232.622-1.337 1.576-2.407 2.852-3.21 1.28-.802 2.733-1.218 4.37-1.248 1.633 0 2.926.46 3.88 1.382.948.92 1.453 2.125 1.515 3.61v10.3h3.3v1.782h-8.606v-1.784zm25.455-9.05c-2.32.922-4.623 1.837-6.908 2.742-2.29.907-4.594 1.82-6.91 2.74.506 1.13 1.307 2.05 2.408 2.765 1.097.714 2.347 1.07 3.744 1.07.918 0 1.78-.163 2.586-.49.8-.327 1.497-.787 2.094-1.38.21.236.4.467.58.688.178.223.37.453.578.69-.77.714-1.65 1.28-2.63 1.695s-2.05.623-3.208.623c-1.22 0-2.355-.23-3.413-.69-1.052-.46-1.975-1.075-2.763-1.85-.788-.77-1.41-1.686-1.872-2.74-.46-1.055-.688-2.19-.688-3.41 0-1.188.227-2.317.688-3.39.462-1.07 1.084-1.99 1.872-2.762s1.71-1.39 2.765-1.85c1.06-.462 2.195-.692 3.414-.692.888 0 1.737.156 2.538.468.806.313 1.54.744 2.207 1.293.67.55 1.258 1.204 1.763 1.96.505.76.892 1.602 1.158 2.52zm-7.666-4.46c-1.102 0-2.103.23-3.013.69-.903.464-1.67 1.07-2.292 1.828-.623.76-1.063 1.638-1.315 2.632-.252.994-.274 2.013-.065 3.053 1.99-.802 3.98-1.597 5.974-2.385 1.99-.787 3.997-1.582 6.018-2.385-.506-1.01-1.232-1.836-2.186-2.474-.95-.638-1.99-.96-3.118-.96zm20.818 13.51h3.48V33.12c-.063-.95-.41-1.783-1.05-2.497-.64-.712-1.586-1.1-2.83-1.158-.893 0-1.755.157-2.586.468-.832.312-1.567.736-2.208 1.27-.64.534-1.145 1.175-1.515 1.917-.374.744-.558 1.56-.558 2.453v7.354h3.296v1.783h-8.6v-1.783h3.48v-13.15h-3.21v-1.783h4.723l.044 1.562c.03.505.06.966.092 1.382.024.416.042.877.042 1.382.593-1.397 1.556-2.526 2.874-3.39 1.324-.86 2.817-1.292 4.484-1.292 1.633 0 2.926.46 3.875 1.382.953.92 1.458 2.125 1.52 3.61v10.3h3.252v1.782h-8.603v-1.784zm12.93-25.81h1.872v10.876h5.124v1.83h-5.124v13.104h3.652v1.783h-5.524V29.825h-3.88v-1.83h3.88V17.118zm7.488 19.212c0-1.187.23-2.316.69-3.388.458-1.07 1.085-1.998 1.873-2.786.784-.786 1.707-1.41 2.765-1.872 1.054-.46 2.19-.69 3.408-.69 1.22 0 2.364.23 3.43.69 1.072.46 2.008 1.086 2.814 1.872.8.788 1.433 1.717 1.894 2.786.457 1.07.688 2.2.688 3.39 0 1.22-.23 2.354-.688 3.408-.46 1.056-1.093 1.97-1.894 2.742-.806.773-1.74 1.39-2.813 1.85-1.066.46-2.21.69-3.43.69-1.22 0-2.355-.23-3.41-.69-1.057-.46-1.98-1.076-2.764-1.85-.788-.772-1.415-1.687-1.872-2.742-.46-1.054-.69-2.19-.69-3.41zm1.828 0c0 .952.178 1.843.535 2.677.357.83.845 1.56 1.472 2.183.622.625 1.35 1.115 2.18 1.472.833.357 1.726.536 2.68.536.948 0 1.85-.18 2.693-.536.85-.356 1.585-.847 2.208-1.472.622-.624 1.114-1.352 1.47-2.183.358-.834.537-1.725.537-2.676s-.18-1.84-.536-2.673c-.356-.83-.85-1.56-1.47-2.186-.624-.62-1.36-1.12-2.21-1.492-.844-.37-1.744-.558-2.693-.558-.953 0-1.846.187-2.678.557-.83.372-1.56.87-2.18 1.493-.628.625-1.115 1.354-1.473 2.186-.357.832-.535 1.723-.535 2.675zm36.495 6.81V41.3c-.2.492-.48.96-.836 1.404-.357.446-.784.836-1.284 1.17-.5.336-1.054.598-1.654.787-.607.19-1.25.287-1.944.287-.914 0-1.768-.175-2.555-.52-.792-.345-1.484-.81-2.076-1.388-.588-.58-1.05-1.266-1.385-2.058-.336-.79-.5-1.643-.5-2.557 0-.89.164-1.737.5-2.54.335-.804.796-1.494 1.384-2.073.592-.58 1.284-1.042 2.077-1.39.788-.343 1.64-.517 2.556-.517.67 0 1.307.096 1.907.285s1.153.45 1.654.786c.5.333.936.725 1.306 1.17.366.444.65.913.85 1.402-.022-.58-.04-1.146-.048-1.704-.014-.558-.018-1.125-.018-1.704v-11.6H263.5v-.902h3.31V43.81h2.477v.902h-3.313V43.14zm-11.298-4.715c0 .78.144 1.51.432 2.19.29.68.688 1.27 1.188 1.77.5.503 1.093.9 1.77 1.188.68.29 1.41.434 2.19.434s1.516-.144 2.208-.434c.69-.29 1.293-.686 1.807-1.188.51-.5.914-1.09 1.2-1.77.293-.68.437-1.41.437-2.19s-.144-1.51-.436-2.19c-.285-.68-.69-1.275-1.2-1.79-.513-.51-1.114-.91-1.806-1.2-.692-.29-1.43-.436-2.208-.436s-1.51.144-2.19.434c-.678.29-1.27.69-1.77 1.2-.5.515-.897 1.11-1.188 1.79-.288.682-.432 1.41-.432 2.19zm27.18-2.105c-1.803.736-3.61 1.46-5.417 2.173-1.802.714-3.608 1.438-5.415 2.172.422 1.004 1.088 1.813 1.99 2.425.9.614 1.945.92 3.125.92.758 0 1.458-.134 2.107-.4.644-.27 1.228-.637 1.736-1.105.094.113.18.224.273.335.087.11.187.222.3.333-.58.56-1.245.992-1.99 1.304-.748.313-1.554.47-2.424.47-.915 0-1.77-.174-2.557-.52-.792-.344-1.48-.808-2.06-1.387-.578-.58-1.04-1.265-1.384-2.057-.35-.79-.52-1.644-.52-2.558 0-.89.17-1.737.52-2.54.343-.804.805-1.494 1.383-2.073.58-.58 1.268-1.042 2.06-1.39.788-.343 1.642-.517 2.556-.517 1.335 0 2.51.413 3.525 1.236 1.015.828 1.746 1.888 2.19 3.18zm-5.717-3.51c-.914 0-1.75.2-2.508.6-.758.402-1.39.925-1.89 1.57-.5.647-.853 1.395-1.053 2.24-.2.85-.188 1.708.034 2.576 1.674-.668 3.328-1.332 4.965-1.99 1.642-.656 3.296-1.32 4.968-1.99-.423-.89-1.032-1.613-1.824-2.17-.788-.56-1.685-.837-2.69-.837z"/><path fill="#E72B65" d="M290.67 41.19h3.656c2.05-4.904 4.11-9.757 6.173-14.557 2.062-4.797 4.12-9.65 6.172-14.553 2.05 4.902 4.11 9.756 6.178 14.553 2.064 4.8 4.123 9.652 6.174 14.556h3.652v3.52h-9.896v-3.52h2.5c-.628-1.486-1.24-2.957-1.85-4.414-.61-1.456-1.23-2.928-1.852-4.414h-9.81l-3.743 8.826h2.538v3.52h-9.896v-3.52zm16.404-19.437l-.444-1.472c-.03.06-.06.165-.087.314-.03.15-.078.313-.135.492-.06.207-.135.43-.222.668-.388.862-.745 1.71-1.07 2.54-.297.714-.61 1.487-.938 2.318-.326.835-.622 1.577-.892 2.23h6.778l-2.99-7.087z"/><path fill="#928286" d="M331.205 38.425c0-.89.166-1.733.5-2.523.336-.792.798-1.482 1.386-2.074.594-.59 1.286-1.058 2.078-1.404.788-.344 1.642-.518 2.556-.518.67 0 1.306.096 1.906.285.6.19 1.153.45 1.653.788.5.333.937.725 1.307 1.17.365.444.648.913.85 1.402 0-.556.012-1.115.034-1.673.02-.555.057-1.125.1-1.704h.7v11.635h2.48v.903h-3.314V41.3c-.2.492-.48.96-.836 1.404-.356.446-.783.836-1.284 1.17s-1.054.598-1.654.787c-.605.19-1.25.287-1.94.287-.915 0-1.77-.175-2.557-.52-.794-.345-1.486-.81-2.078-1.388-.588-.58-1.05-1.266-1.385-2.058-.337-.787-.503-1.64-.503-2.555zm.936 0c0 .78.146 1.51.433 2.19.292.68.688 1.27 1.188 1.77.5.503 1.094.9 1.773 1.188.68.29 1.41.434 2.19.434s1.514-.144 2.206-.434c.69-.29 1.292-.686 1.806-1.188.51-.5.914-1.09 1.2-1.77.293-.68.437-1.41.437-2.19s-.144-1.51-.436-2.19c-.287-.68-.69-1.275-1.2-1.79-.515-.51-1.115-.91-1.808-1.2-.693-.29-1.43-.436-2.208-.436s-1.51.144-2.188.434c-.68.29-1.27.69-1.772 1.2-.5.515-.896 1.11-1.188 1.79-.287.682-.43 1.41-.43 2.19z"/><path fill="#E72B65" d="M380.865 33.923V44.71h-24.92v-3.564l19.077-24.118h-18.367v-5.083h3.7v1.56h19.217v3.516l-19.08 24.08h16.852v-7.176h3.52z"/></svg>